<?xml version="1.0" encoding="UTF-8"?>
<svg version="1.1" xmlns="http://www.w3.org/2000/svg" width="640" height="640">
<path d="M0 0 C211.2 0 422.4 0 640 0 C640 211.2 640 422.4 640 640 C428.8 640 217.6 640 0 640 C0 428.8 0 217.6 0 0 Z " fill="#3F3F74" transform="translate(0,0)"/>
<path d="M0 0 C6.6 0 13.2 0 20 0 C20 3.3 20 6.6 20 10 C26.6 10 33.2 10 40 10 C40 13.3 40 16.6 40 20 C46.6 20 53.2 20 60 20 C60 23.3 60 26.6 60 30 C66.6 30 73.2 30 80 30 C80 33.3 80 36.6 80 40 C86.6 40 93.2 40 100 40 C100 43.3 100 46.6 100 50 C103.3 50 106.6 50 110 50 C110 59.9 110 69.8 110 80 C106.7 80 103.4 80 100 80 C100 83.3 100 86.6 100 90 C96.7 90 93.4 90 90 90 C90 93.3 90 96.6 90 100 C83.4 100 76.8 100 70 100 C70 103.3 70 106.6 70 110 C66.7 110 63.4 110 60 110 C60 123.2 60 136.4 60 150 C56.7 150 53.4 150 50 150 C50 153.3 50 156.6 50 160 C43.4 160 36.8 160 30 160 C30 163.3 30 166.6 30 170 C26.7 170 23.4 170 20 170 C20 189.8 20 209.6 20 230 C23.3 230 26.6 230 30 230 C30 233.3 30 236.6 30 240 C36.6 240 43.2 240 50 240 C50 243.3 50 246.6 50 250 C56.6 250 63.2 250 70 250 C70 253.3 70 256.6 70 260 C76.6 260 83.2 260 90 260 C90 263.3 90 266.6 90 270 C96.6 270 103.2 270 110 270 C110 273.3 110 276.6 110 280 C116.6 280 123.2 280 130 280 C130 276.7 130 273.4 130 270 C133.3 270 136.6 270 140 270 C140 266.7 140 263.4 140 260 C143.3 260 146.6 260 150 260 C150 256.7 150 253.4 150 250 C153.3 250 156.6 250 160 250 C160 246.7 160 243.4 160 240 C163.3 240 166.6 240 170 240 C170 236.7 170 233.4 170 230 C173.3 230 176.6 230 180 230 C180 220.1 180 210.2 180 200 C173.4 200 166.8 200 160 200 C160 196.7 160 193.4 160 190 C156.7 190 153.4 190 150 190 C150 186.7 150 183.4 150 180 C143.4 180 136.8 180 130 180 C130 176.7 130 173.4 130 170 C126.7 170 123.4 170 120 170 C120 153.5 120 137 120 120 C113.4 120 106.8 120 100 120 C100 123.3 100 126.6 100 130 C93.4 130 86.8 130 80 130 C80 133.3 80 136.6 80 140 C76.7 140 73.4 140 70 140 C70 133.4 70 126.8 70 120 C73.3 120 76.6 120 80 120 C80 116.7 80 113.4 80 110 C86.6 110 93.2 110 100 110 C100 106.7 100 103.4 100 100 C103.3 100 106.6 100 110 100 C110 96.7 110 93.4 110 90 C113.3 90 116.6 90 120 90 C120 80.1 120 70.2 120 60 C126.6 60 133.2 60 140 60 C140 63.3 140 66.6 140 70 C146.6 70 153.2 70 160 70 C160 73.3 160 76.6 160 80 C166.6 80 173.2 80 180 80 C180 83.3 180 86.6 180 90 C186.6 90 193.2 90 200 90 C200 93.3 200 96.6 200 100 C203.3 100 206.6 100 210 100 C210 103.3 210 106.6 210 110 C216.6 110 223.2 110 230 110 C230 113.3 230 116.6 230 120 C233.3 120 236.6 120 240 120 C240 123.3 240 126.6 240 130 C243.3 130 246.6 130 250 130 C250 149.8 250 169.6 250 190 C256.6 190 263.2 190 270 190 C270 193.3 270 196.6 270 200 C273.3 200 276.6 200 280 200 C280 209.9 280 219.8 280 230 C283.3 230 286.6 230 290 230 C290 256.4 290 282.8 290 310 C286.7 310 283.4 310 280 310 C280 313.3 280 316.6 280 320 C276.7 320 273.4 320 270 320 C270 323.3 270 326.6 270 330 C263.4 330 256.8 330 250 330 C250 333.3 250 336.6 250 340 C81.7 340 -86.6 340 -260 340 C-260 277.3 -260 214.6 -260 150 C-253.4 150 -246.8 150 -240 150 C-240 146.7 -240 143.4 -240 140 C-236.7 140 -233.4 140 -230 140 C-230 136.7 -230 133.4 -230 130 C-223.4 130 -216.8 130 -210 130 C-210 126.7 -210 123.4 -210 120 C-203.4 120 -196.8 120 -190 120 C-190 116.7 -190 113.4 -190 110 C-183.4 110 -176.8 110 -170 110 C-170 106.7 -170 103.4 -170 100 C-166.7 100 -163.4 100 -160 100 C-160 96.7 -160 93.4 -160 90 C-153.4 90 -146.8 90 -140 90 C-140 86.7 -140 83.4 -140 80 C-133.4 80 -126.8 80 -120 80 C-120 76.7 -120 73.4 -120 70 C-113.4 70 -106.8 70 -100 70 C-100 66.7 -100 63.4 -100 60 C-93.4 60 -86.8 60 -80 60 C-80 56.7 -80 53.4 -80 50 C-76.7 50 -73.4 50 -70 50 C-70 46.7 -70 43.4 -70 40 C-60.1 40 -50.2 40 -40 40 C-40 36.7 -40 33.4 -40 30 C-36.7 30 -33.4 30 -30 30 C-30 26.7 -30 23.4 -30 20 C-23.4 20 -16.8 20 -10 20 C-10 16.7 -10 13.4 -10 10 C-6.7 10 -3.4 10 0 10 C0 6.7 0 3.4 0 0 Z " fill="#CBDBFC" transform="translate(260,300)"/>
<path d="M0 0 C13.2 0 26.4 0 40 0 C40 3.3 40 6.6 40 10 C43.3 10 46.6 10 50 10 C50 13.3 50 16.6 50 20 C56.6 20 63.2 20 70 20 C70 23.3 70 26.6 70 30 C79.9 30 89.8 30 100 30 C100 33.3 100 36.6 100 40 C106.6 40 113.2 40 120 40 C120 43.3 120 46.6 120 50 C126.6 50 133.2 50 140 50 C140 53.3 140 56.6 140 60 C146.6 60 153.2 60 160 60 C160 63.3 160 66.6 160 70 C166.6 70 173.2 70 180 70 C180 73.3 180 76.6 180 80 C186.6 80 193.2 80 200 80 C200 83.3 200 86.6 200 90 C209.9 90 219.8 90 230 90 C230 93.3 230 96.6 230 100 C239.9 100 249.8 100 260 100 C260 103.3 260 106.6 260 110 C276.5 110 293 110 310 110 C310 113.3 310 116.6 310 120 C313.3 120 316.6 120 320 120 C320 126.6 320 133.2 320 140 C316.7 140 313.4 140 310 140 C310 146.6 310 153.2 310 160 C306.7 160 303.4 160 300 160 C300 166.6 300 173.2 300 180 C296.7 180 293.4 180 290 180 C290 186.6 290 193.2 290 200 C286.7 200 283.4 200 280 200 C280 206.6 280 213.2 280 220 C276.7 220 273.4 220 270 220 C270 226.6 270 233.2 270 240 C266.7 240 263.4 240 260 240 C260 246.6 260 253.2 260 260 C256.7 260 253.4 260 250 260 C250 266.6 250 273.2 250 280 C236.8 280 223.6 280 210 280 C210 276.7 210 273.4 210 270 C203.4 270 196.8 270 190 270 C190 266.7 190 263.4 190 260 C183.4 260 176.8 260 170 260 C170 256.7 170 253.4 170 250 C163.4 250 156.8 250 150 250 C150 246.7 150 243.4 150 240 C143.4 240 136.8 240 130 240 C130 236.7 130 233.4 130 230 C126.7 230 123.4 230 120 230 C120 226.7 120 223.4 120 220 C113.4 220 106.8 220 100 220 C100 216.7 100 213.4 100 210 C93.4 210 86.8 210 80 210 C80 206.7 80 203.4 80 200 C73.4 200 66.8 200 60 200 C60 196.7 60 193.4 60 190 C53.4 190 46.8 190 40 190 C40 186.7 40 183.4 40 180 C33.4 180 26.8 180 20 180 C20 176.7 20 173.4 20 170 C16.7 170 13.4 170 10 170 C10 166.7 10 163.4 10 160 C-3.2 160 -16.4 160 -30 160 C-30 156.7 -30 153.4 -30 150 C-36.6 150 -43.2 150 -50 150 C-50 136.8 -50 123.6 -50 110 C-46.7 110 -43.4 110 -40 110 C-40 103.4 -40 96.8 -40 90 C-36.7 90 -33.4 90 -30 90 C-30 86.7 -30 83.4 -30 80 C-26.7 80 -23.4 80 -20 80 C-20 73.4 -20 66.8 -20 60 C-16.7 60 -13.4 60 -10 60 C-10 53.4 -10 46.8 -10 40 C-6.7 40 -3.4 40 0 40 C0 26.8 0 13.6 0 0 Z " fill="#76428A" transform="translate(250,50)"/>
<path d="M0 0 C13.2 0 26.4 0 40 0 C40 3.3 40 6.6 40 10 C43.3 10 46.6 10 50 10 C50 13.3 50 16.6 50 20 C56.6 20 63.2 20 70 20 C70 23.3 70 26.6 70 30 C76.6 30 83.2 30 90 30 C90 33.3 90 36.6 90 40 C99.9 40 109.8 40 120 40 C120 43.3 120 46.6 120 50 C126.6 50 133.2 50 140 50 C140 53.3 140 56.6 140 60 C149.9 60 159.8 60 170 60 C170 63.3 170 66.6 170 70 C179.9 70 189.8 70 200 70 C200 73.3 200 76.6 200 80 C206.6 80 213.2 80 220 80 C220 83.3 220 86.6 220 90 C229.9 90 239.8 90 250 90 C250 93.3 250 96.6 250 100 C256.6 100 263.2 100 270 100 C270 103.3 270 106.6 270 110 C279.9 110 289.8 110 300 110 C300 113.3 300 116.6 300 120 C306.6 120 313.2 120 320 120 C320 123.3 320 126.6 320 130 C326.6 130 333.2 130 340 130 C340 133.3 340 136.6 340 140 C349.9 140 359.8 140 370 140 C370 149.9 370 159.8 370 170 C366.7 170 363.4 170 360 170 C360 176.6 360 183.2 360 190 C356.7 190 353.4 190 350 190 C350 196.6 350 203.2 350 210 C346.7 210 343.4 210 340 210 C340 216.6 340 223.2 340 230 C336.7 230 333.4 230 330 230 C330 236.6 330 243.2 330 250 C326.7 250 323.4 250 320 250 C320 259.9 320 269.8 320 280 C316.7 280 313.4 280 310 280 C310 289.9 310 299.8 310 310 C306.7 310 303.4 310 300 310 C300 319.9 300 329.8 300 340 C290.1 340 280.2 340 270 340 C270 336.7 270 333.4 270 330 C260.1 330 250.2 330 240 330 C240 326.7 240 323.4 240 320 C230.1 320 220.2 320 210 320 C210 316.7 210 313.4 210 310 C203.4 310 196.8 310 190 310 C190 306.7 190 303.4 190 300 C183.4 300 176.8 300 170 300 C170 296.7 170 293.4 170 290 C163.4 290 156.8 290 150 290 C150 286.7 150 283.4 150 280 C143.4 280 136.8 280 130 280 C130 276.7 130 273.4 130 270 C126.7 270 123.4 270 120 270 C120 279.9 120 289.8 120 300 C123.3 300 126.6 300 130 300 C130 306.6 130 313.2 130 320 C133.3 320 136.6 320 140 320 C140 336.5 140 353 140 370 C136.7 370 133.4 370 130 370 C130 373.3 130 376.6 130 380 C126.7 380 123.4 380 120 380 C120 383.3 120 386.6 120 390 C113.4 390 106.8 390 100 390 C100 393.3 100 396.6 100 400 C96.7 400 93.4 400 90 400 C90 406.6 90 413.2 90 420 C93.3 420 96.6 420 100 420 C100 416.7 100 413.4 100 410 C106.6 410 113.2 410 120 410 C120 406.7 120 403.4 120 400 C126.6 400 133.2 400 140 400 C140 416.5 140 433 140 450 C143.3 450 146.6 450 150 450 C150 453.3 150 456.6 150 460 C156.6 460 163.2 460 170 460 C170 463.3 170 466.6 170 470 C173.3 470 176.6 470 180 470 C180 473.3 180 476.6 180 480 C186.6 480 193.2 480 200 480 C200 489.9 200 499.8 200 510 C196.7 510 193.4 510 190 510 C190 513.3 190 516.6 190 520 C186.7 520 183.4 520 180 520 C180 523.3 180 526.6 180 530 C176.7 530 173.4 530 170 530 C170 533.3 170 536.6 170 540 C166.7 540 163.4 540 160 540 C160 543.3 160 546.6 160 550 C156.7 550 153.4 550 150 550 C150 553.3 150 556.6 150 560 C143.4 560 136.8 560 130 560 C130 556.7 130 553.4 130 550 C123.4 550 116.8 550 110 550 C110 546.7 110 543.4 110 540 C103.4 540 96.8 540 90 540 C90 536.7 90 533.4 90 530 C83.4 530 76.8 530 70 530 C70 526.7 70 523.4 70 520 C63.4 520 56.8 520 50 520 C50 516.7 50 513.4 50 510 C46.7 510 43.4 510 40 510 C40 490.2 40 470.4 40 450 C43.3 450 46.6 450 50 450 C50 446.7 50 443.4 50 440 C56.6 440 63.2 440 70 440 C70 436.7 70 433.4 70 430 C73.3 430 76.6 430 80 430 C80 416.8 80 403.6 80 390 C83.3 390 86.6 390 90 390 C90 386.7 90 383.4 90 380 C96.6 380 103.2 380 110 380 C110 376.7 110 373.4 110 370 C113.3 370 116.6 370 120 370 C120 366.7 120 363.4 120 360 C123.3 360 126.6 360 130 360 C130 350.1 130 340.2 130 330 C126.7 330 123.4 330 120 330 C120 323.4 120 316.8 120 310 C116.7 310 113.4 310 110 310 C110 293.5 110 277 110 260 C103.4 260 96.8 260 90 260 C90 256.7 90 253.4 90 250 C86.7 250 83.4 250 80 250 C80 246.7 80 243.4 80 240 C73.4 240 66.8 240 60 240 C60 236.7 60 233.4 60 230 C53.4 230 46.8 230 40 230 C40 226.7 40 223.4 40 220 C33.4 220 26.8 220 20 220 C20 216.7 20 213.4 20 210 C10.1 210 0.2 210 -10 210 C-10 206.7 -10 203.4 -10 200 C-19.9 200 -29.8 200 -40 200 C-40 196.7 -40 193.4 -40 190 C-46.6 190 -53.2 190 -60 190 C-60 176.8 -60 163.6 -60 150 C-56.7 150 -53.4 150 -50 150 C-50 136.8 -50 123.6 -50 110 C-46.7 110 -43.4 110 -40 110 C-40 100.1 -40 90.2 -40 80 C-36.7 80 -33.4 80 -30 80 C-30 73.4 -30 66.8 -30 60 C-26.7 60 -23.4 60 -20 60 C-20 53.4 -20 46.8 -20 40 C-16.7 40 -13.4 40 -10 40 C-10 33.4 -10 26.8 -10 20 C-6.7 20 -3.4 20 0 20 C0 13.4 0 6.8 0 0 Z M10 30 C10 43.2 10 56.4 10 70 C6.7 70 3.4 70 0 70 C0 76.6 0 83.2 0 90 C-3.3 90 -6.6 90 -10 90 C-10 96.6 -10 103.2 -10 110 C-13.3 110 -16.6 110 -20 110 C-20 113.3 -20 116.6 -20 120 C-23.3 120 -26.6 120 -30 120 C-30 126.6 -30 133.2 -30 140 C-33.3 140 -36.6 140 -40 140 C-40 153.2 -40 166.4 -40 180 C-33.4 180 -26.8 180 -20 180 C-20 183.3 -20 186.6 -20 190 C-6.8 190 6.4 190 20 190 C20 193.3 20 196.6 20 200 C23.3 200 26.6 200 30 200 C30 203.3 30 206.6 30 210 C36.6 210 43.2 210 50 210 C50 213.3 50 216.6 50 220 C56.6 220 63.2 220 70 220 C70 223.3 70 226.6 70 230 C76.6 230 83.2 230 90 230 C90 233.3 90 236.6 90 240 C96.6 240 103.2 240 110 240 C110 243.3 110 246.6 110 250 C116.6 250 123.2 250 130 250 C130 253.3 130 256.6 130 260 C133.3 260 136.6 260 140 260 C140 263.3 140 266.6 140 270 C146.6 270 153.2 270 160 270 C160 273.3 160 276.6 160 280 C166.6 280 173.2 280 180 280 C180 283.3 180 286.6 180 290 C186.6 290 193.2 290 200 290 C200 293.3 200 296.6 200 300 C206.6 300 213.2 300 220 300 C220 303.3 220 306.6 220 310 C233.2 310 246.4 310 260 310 C260 303.4 260 296.8 260 290 C263.3 290 266.6 290 270 290 C270 283.4 270 276.8 270 270 C273.3 270 276.6 270 280 270 C280 263.4 280 256.8 280 250 C283.3 250 286.6 250 290 250 C290 243.4 290 236.8 290 230 C293.3 230 296.6 230 300 230 C300 223.4 300 216.8 300 210 C303.3 210 306.6 210 310 210 C310 203.4 310 196.8 310 190 C313.3 190 316.6 190 320 190 C320 183.4 320 176.8 320 170 C323.3 170 326.6 170 330 170 C330 163.4 330 156.8 330 150 C326.7 150 323.4 150 320 150 C320 146.7 320 143.4 320 140 C303.5 140 287 140 270 140 C270 136.7 270 133.4 270 130 C260.1 130 250.2 130 240 130 C240 126.7 240 123.4 240 120 C230.1 120 220.2 120 210 120 C210 116.7 210 113.4 210 110 C203.4 110 196.8 110 190 110 C190 106.7 190 103.4 190 100 C183.4 100 176.8 100 170 100 C170 96.7 170 93.4 170 90 C163.4 90 156.8 90 150 90 C150 86.7 150 83.4 150 80 C143.4 80 136.8 80 130 80 C130 76.7 130 73.4 130 70 C123.4 70 116.8 70 110 70 C110 66.7 110 63.4 110 60 C100.1 60 90.2 60 80 60 C80 56.7 80 53.4 80 50 C73.4 50 66.8 50 60 50 C60 46.7 60 43.4 60 40 C56.7 40 53.4 40 50 40 C50 36.7 50 33.4 50 30 C36.8 30 23.6 30 10 30 Z " fill="#000000" transform="translate(240,20)"/>
<path d="M0 0 C49.5 0 99 0 150 0 C150 62.7 150 125.4 150 190 C146.7 190 143.4 190 140 190 C140 206.5 140 223 140 240 C136.7 240 133.4 240 130 240 C130 243.3 130 246.6 130 250 C126.7 250 123.4 250 120 250 C120 253.3 120 256.6 120 260 C113.4 260 106.8 260 100 260 C100 263.3 100 266.6 100 270 C93.4 270 86.8 270 80 270 C80 273.3 80 276.6 80 280 C73.4 280 66.8 280 60 280 C60 283.3 60 286.6 60 290 C53.4 290 46.8 290 40 290 C40 293.3 40 296.6 40 300 C36.7 300 33.4 300 30 300 C30 303.3 30 306.6 30 310 C26.7 310 23.4 310 20 310 C20 313.3 20 316.6 20 320 C13.4 320 6.8 320 0 320 C0 214.4 0 108.8 0 0 Z " fill="#FFFFFF" transform="translate(0,0)"/>
<path d="M0 0 C6.6 0 13.2 0 20 0 C20 3.3 20 6.6 20 10 C26.6 10 33.2 10 40 10 C40 13.3 40 16.6 40 20 C46.6 20 53.2 20 60 20 C60 23.3 60 26.6 60 30 C66.6 30 73.2 30 80 30 C80 33.3 80 36.6 80 40 C83.3 40 86.6 40 90 40 C90 43.3 90 46.6 90 50 C96.6 50 103.2 50 110 50 C110 53.3 110 56.6 110 60 C113.3 60 116.6 60 120 60 C120 63.3 120 66.6 120 70 C123.3 70 126.6 70 130 70 C130 89.8 130 109.6 130 130 C136.6 130 143.2 130 150 130 C150 133.3 150 136.6 150 140 C153.3 140 156.6 140 160 140 C160 149.9 160 159.8 160 170 C163.3 170 166.6 170 170 170 C170 196.4 170 222.8 170 250 C166.7 250 163.4 250 160 250 C160 253.3 160 256.6 160 260 C156.7 260 153.4 260 150 260 C150 263.3 150 266.6 150 270 C143.4 270 136.8 270 130 270 C130 273.3 130 276.6 130 280 C83.8 280 37.6 280 -10 280 C-10 276.7 -10 273.4 -10 270 C-6.7 270 -3.4 270 0 270 C0 266.7 0 263.4 0 260 C3.3 260 6.6 260 10 260 C10 256.7 10 253.4 10 250 C13.3 250 16.6 250 20 250 C20 246.7 20 243.4 20 240 C23.3 240 26.6 240 30 240 C30 233.4 30 226.8 30 220 C33.3 220 36.6 220 40 220 C40 216.7 40 213.4 40 210 C43.3 210 46.6 210 50 210 C50 196.8 50 183.6 50 170 C53.3 170 56.6 170 60 170 C60 160.1 60 150.2 60 140 C53.4 140 46.8 140 40 140 C40 136.7 40 133.4 40 130 C36.7 130 33.4 130 30 130 C30 126.7 30 123.4 30 120 C23.4 120 16.8 120 10 120 C10 116.7 10 113.4 10 110 C6.7 110 3.4 110 0 110 C0 93.5 0 77 0 60 C-6.6 60 -13.2 60 -20 60 C-20 63.3 -20 66.6 -20 70 C-26.6 70 -33.2 70 -40 70 C-40 73.3 -40 76.6 -40 80 C-43.3 80 -46.6 80 -50 80 C-50 73.4 -50 66.8 -50 60 C-46.7 60 -43.4 60 -40 60 C-40 56.7 -40 53.4 -40 50 C-33.4 50 -26.8 50 -20 50 C-20 46.7 -20 43.4 -20 40 C-16.7 40 -13.4 40 -10 40 C-10 36.7 -10 33.4 -10 30 C-6.7 30 -3.4 30 0 30 C0 20.1 0 10.2 0 0 Z " fill="#37946E" transform="translate(380,360)"/>
<path d="M0 0 C19.8 0 39.6 0 60 0 C60 3.3 60 6.6 60 10 C63.3 10 66.6 10 70 10 C70 16.6 70 23.2 70 30 C66.7 30 63.4 30 60 30 C60 36.6 60 43.2 60 50 C56.7 50 53.4 50 50 50 C50 56.6 50 63.2 50 70 C46.7 70 43.4 70 40 70 C40 76.6 40 83.2 40 90 C36.7 90 33.4 90 30 90 C30 96.6 30 103.2 30 110 C26.7 110 23.4 110 20 110 C20 116.6 20 123.2 20 130 C16.7 130 13.4 130 10 130 C10 136.6 10 143.2 10 150 C6.7 150 3.4 150 0 150 C0 156.6 0 163.2 0 170 C-13.2 170 -26.4 170 -40 170 C-40 166.7 -40 163.4 -40 160 C-46.6 160 -53.2 160 -60 160 C-60 156.7 -60 153.4 -60 150 C-66.6 150 -73.2 150 -80 150 C-80 146.7 -80 143.4 -80 140 C-86.6 140 -93.2 140 -100 140 C-100 136.7 -100 133.4 -100 130 C-106.6 130 -113.2 130 -120 130 C-120 126.7 -120 123.4 -120 120 C-123.3 120 -126.6 120 -130 120 C-130 116.7 -130 113.4 -130 110 C-136.6 110 -143.2 110 -150 110 C-150 106.7 -150 103.4 -150 100 C-156.6 100 -163.2 100 -170 100 C-170 96.7 -170 93.4 -170 90 C-176.6 90 -183.2 90 -190 90 C-190 86.7 -190 83.4 -190 80 C-196.6 80 -203.2 80 -210 80 C-210 76.7 -210 73.4 -210 70 C-216.6 70 -223.2 70 -230 70 C-230 66.7 -230 63.4 -230 60 C-233.3 60 -236.6 60 -240 60 C-240 56.7 -240 53.4 -240 50 C-226.8 50 -213.6 50 -200 50 C-200 46.7 -200 43.4 -200 40 C-180.2 40 -160.4 40 -140 40 C-140 43.3 -140 46.6 -140 50 C-136.7 50 -133.4 50 -130 50 C-130 53.3 -130 56.6 -130 60 C-123.4 60 -116.8 60 -110 60 C-110 63.3 -110 66.6 -110 70 C-96.8 70 -83.6 70 -70 70 C-70 73.3 -70 76.6 -70 80 C-66.7 80 -63.4 80 -60 80 C-60 83.3 -60 86.6 -60 90 C-56.7 90 -53.4 90 -50 90 C-50 76.8 -50 63.6 -50 50 C-46.7 50 -43.4 50 -40 50 C-40 46.7 -40 43.4 -40 40 C-36.7 40 -33.4 40 -30 40 C-30 36.7 -30 33.4 -30 30 C-26.7 30 -23.4 30 -20 30 C-20 23.4 -20 16.8 -20 10 C-13.4 10 -6.8 10 0 10 C0 6.7 0 3.4 0 0 Z " fill="#76428A" transform="translate(500,160)"/>
<path d="M0 0 C6.6 0 13.2 0 20 0 C20 16.5 20 33 20 50 C23.3 50 26.6 50 30 50 C30 53.3 30 56.6 30 60 C36.6 60 43.2 60 50 60 C50 63.3 50 66.6 50 70 C53.3 70 56.6 70 60 70 C60 73.3 60 76.6 60 80 C66.6 80 73.2 80 80 80 C80 89.9 80 99.8 80 110 C76.7 110 73.4 110 70 110 C70 113.3 70 116.6 70 120 C66.7 120 63.4 120 60 120 C60 123.3 60 126.6 60 130 C56.7 130 53.4 130 50 130 C50 133.3 50 136.6 50 140 C46.7 140 43.4 140 40 140 C40 143.3 40 146.6 40 150 C36.7 150 33.4 150 30 150 C30 153.3 30 156.6 30 160 C23.4 160 16.8 160 10 160 C10 156.7 10 153.4 10 150 C3.4 150 -3.2 150 -10 150 C-10 146.7 -10 143.4 -10 140 C-16.6 140 -23.2 140 -30 140 C-30 136.7 -30 133.4 -30 130 C-36.6 130 -43.2 130 -50 130 C-50 126.7 -50 123.4 -50 120 C-56.6 120 -63.2 120 -70 120 C-70 116.7 -70 113.4 -70 110 C-73.3 110 -76.6 110 -80 110 C-80 90.2 -80 70.4 -80 50 C-76.7 50 -73.4 50 -70 50 C-70 46.7 -70 43.4 -70 40 C-63.4 40 -56.8 40 -50 40 C-50 36.7 -50 33.4 -50 30 C-43.4 30 -36.8 30 -30 30 C-30 26.7 -30 23.4 -30 20 C-26.7 20 -23.4 20 -20 20 C-20 16.7 -20 13.4 -20 10 C-13.4 10 -6.8 10 0 10 C0 6.7 0 3.4 0 0 Z " fill="#847E87" transform="translate(360,420)"/>
<path d="M0 0 C6.6 0 13.2 0 20 0 C20 3.3 20 6.6 20 10 C26.6 10 33.2 10 40 10 C40 13.3 40 16.6 40 20 C46.6 20 53.2 20 60 20 C60 23.3 60 26.6 60 30 C66.6 30 73.2 30 80 30 C80 33.3 80 36.6 80 40 C83.3 40 86.6 40 90 40 C90 43.3 90 46.6 90 50 C96.6 50 103.2 50 110 50 C110 53.3 110 56.6 110 60 C113.3 60 116.6 60 120 60 C120 63.3 120 66.6 120 70 C123.3 70 126.6 70 130 70 C130 86.5 130 103 130 120 C116.8 120 103.6 120 90 120 C90 123.3 90 126.6 90 130 C86.7 130 83.4 130 80 130 C80 133.3 80 136.6 80 140 C76.7 140 73.4 140 70 140 C70 143.3 70 146.6 70 150 C66.7 150 63.4 150 60 150 C60 146.7 60 143.4 60 140 C53.4 140 46.8 140 40 140 C40 136.7 40 133.4 40 130 C36.7 130 33.4 130 30 130 C30 126.7 30 123.4 30 120 C23.4 120 16.8 120 10 120 C10 116.7 10 113.4 10 110 C6.7 110 3.4 110 0 110 C0 93.5 0 77 0 60 C-6.6 60 -13.2 60 -20 60 C-20 63.3 -20 66.6 -20 70 C-26.6 70 -33.2 70 -40 70 C-40 73.3 -40 76.6 -40 80 C-43.3 80 -46.6 80 -50 80 C-50 73.4 -50 66.8 -50 60 C-46.7 60 -43.4 60 -40 60 C-40 56.7 -40 53.4 -40 50 C-33.4 50 -26.8 50 -20 50 C-20 46.7 -20 43.4 -20 40 C-16.7 40 -13.4 40 -10 40 C-10 36.7 -10 33.4 -10 30 C-6.7 30 -3.4 30 0 30 C0 20.1 0 10.2 0 0 Z " fill="#CBDBFC" transform="translate(380,360)"/>
<path d="M0 0 C6.6 0 13.2 0 20 0 C20 3.3 20 6.6 20 10 C26.6 10 33.2 10 40 10 C40 13.3 40 16.6 40 20 C43.3 20 46.6 20 50 20 C50 23.3 50 26.6 50 30 C53.3 30 56.6 30 60 30 C60 33.3 60 36.6 60 40 C63.3 40 66.6 40 70 40 C70 46.6 70 53.2 70 60 C76.6 60 83.2 60 90 60 C90 63.3 90 66.6 90 70 C93.3 70 96.6 70 100 70 C100 76.6 100 83.2 100 90 C96.7 90 93.4 90 90 90 C90 93.3 90 96.6 90 100 C86.7 100 83.4 100 80 100 C80 103.3 80 106.6 80 110 C70.1 110 60.2 110 50 110 C50 113.3 50 116.6 50 120 C46.7 120 43.4 120 40 120 C40 123.3 40 126.6 40 130 C33.4 130 26.8 130 20 130 C20 133.3 20 136.6 20 140 C3.5 140 -13 140 -30 140 C-30 123.5 -30 107 -30 90 C-26.7 90 -23.4 90 -20 90 C-20 80.1 -20 70.2 -20 60 C-16.7 60 -13.4 60 -10 60 C-10 50.1 -10 40.2 -10 30 C-6.7 30 -3.4 30 0 30 C0 20.1 0 10.2 0 0 Z " fill="#847E87" transform="translate(30,110)"/>
<path d="M0 0 C19.8 0 39.6 0 60 0 C60 3.3 60 6.6 60 10 C63.3 10 66.6 10 70 10 C70 13.3 70 16.6 70 20 C76.6 20 83.2 20 90 20 C90 23.3 90 26.6 90 30 C103.2 30 116.4 30 130 30 C130 33.3 130 36.6 130 40 C133.3 40 136.6 40 140 40 C140 43.3 140 46.6 140 50 C143.3 50 146.6 50 150 50 C150 53.3 150 56.6 150 60 C153.3 60 156.6 60 160 60 C160 76.5 160 93 160 110 C163.3 110 166.6 110 170 110 C170 113.3 170 116.6 170 120 C173.3 120 176.6 120 180 120 C180 123.3 180 126.6 180 130 C173.4 130 166.8 130 160 130 C160 126.7 160 123.4 160 120 C153.4 120 146.8 120 140 120 C140 116.7 140 113.4 140 110 C133.4 110 126.8 110 120 110 C120 106.7 120 103.4 120 100 C113.4 100 106.8 100 100 100 C100 96.7 100 93.4 100 90 C93.4 90 86.8 90 80 90 C80 86.7 80 83.4 80 80 C76.7 80 73.4 80 70 80 C70 76.7 70 73.4 70 70 C63.4 70 56.8 70 50 70 C50 66.7 50 63.4 50 60 C43.4 60 36.8 60 30 60 C30 56.7 30 53.4 30 50 C23.4 50 16.8 50 10 50 C10 46.7 10 43.4 10 40 C3.4 40 -3.2 40 -10 40 C-10 36.7 -10 33.4 -10 30 C-16.6 30 -23.2 30 -30 30 C-30 26.7 -30 23.4 -30 20 C-33.3 20 -36.6 20 -40 20 C-40 16.7 -40 13.4 -40 10 C-26.8 10 -13.6 10 0 10 C0 6.7 0 3.4 0 0 Z " fill="#D77BBA" transform="translate(300,200)"/>
<path d="M0 0 C9.9 0 19.8 0 30 0 C30 3.3 30 6.6 30 10 C33.3 10 36.6 10 40 10 C40 23.2 40 36.4 40 50 C43.3 50 46.6 50 50 50 C50 59.9 50 69.8 50 80 C43.4 80 36.8 80 30 80 C30 83.3 30 86.6 30 90 C23.4 90 16.8 90 10 90 C10 93.3 10 96.6 10 100 C3.4 100 -3.2 100 -10 100 C-10 103.3 -10 106.6 -10 110 C-13.3 110 -16.6 110 -20 110 C-20 113.3 -20 116.6 -20 120 C-26.6 120 -33.2 120 -40 120 C-40 90.3 -40 60.6 -40 30 C-36.7 30 -33.4 30 -30 30 C-30 26.7 -30 23.4 -30 20 C-26.7 20 -23.4 20 -20 20 C-20 16.7 -20 13.4 -20 10 C-13.4 10 -6.8 10 0 10 C0 6.7 0 3.4 0 0 Z " fill="#37946E" transform="translate(40,330)"/>
<path d="M0 0 C16.5 0 33 0 50 0 C50 3.3 50 6.6 50 10 C53.3 10 56.6 10 60 10 C60 13.3 60 16.6 60 20 C63.3 20 66.6 20 70 20 C70 33.2 70 46.4 70 60 C66.7 60 63.4 60 60 60 C60 63.3 60 66.6 60 70 C56.7 70 53.4 70 50 70 C50 73.3 50 76.6 50 80 C43.4 80 36.8 80 30 80 C30 83.3 30 86.6 30 90 C20.1 90 10.2 90 0 90 C0 86.7 0 83.4 0 80 C-3.3 80 -6.6 80 -10 80 C-10 76.7 -10 73.4 -10 70 C-13.3 70 -16.6 70 -20 70 C-20 53.5 -20 37 -20 20 C-16.7 20 -13.4 20 -10 20 C-10 16.7 -10 13.4 -10 10 C-6.7 10 -3.4 10 0 10 C0 6.7 0 3.4 0 0 Z " fill="#37946E" transform="translate(130,280)"/>
<path d="M0 0 C13.2 0 26.4 0 40 0 C40 3.3 40 6.6 40 10 C46.6 10 53.2 10 60 10 C60 13.3 60 16.6 60 20 C66.6 20 73.2 20 80 20 C80 23.3 80 26.6 80 30 C83.3 30 86.6 30 90 30 C90 33.3 90 36.6 90 40 C93.3 40 96.6 40 100 40 C100 49.9 100 59.8 100 70 C96.7 70 93.4 70 90 70 C90 76.6 90 83.2 90 90 C86.7 90 83.4 90 80 90 C80 93.3 80 96.6 80 100 C73.4 100 66.8 100 60 100 C60 96.7 60 93.4 60 90 C53.4 90 46.8 90 40 90 C40 86.7 40 83.4 40 80 C36.7 80 33.4 80 30 80 C30 76.7 30 73.4 30 70 C20.1 70 10.2 70 0 70 C0 66.7 0 63.4 0 60 C3.3 60 6.6 60 10 60 C10 56.7 10 53.4 10 50 C29.8 50 49.6 50 70 50 C70 46.7 70 43.4 70 40 C53.5 40 37 40 20 40 C20 36.7 20 33.4 20 30 C10.1 30 0.2 30 -10 30 C-10 23.4 -10 16.8 -10 10 C-6.7 10 -3.4 10 0 10 C0 6.7 0 3.4 0 0 Z " fill="#595652" transform="translate(330,130)"/>
<path d="M0 0 C3.3 0 6.6 0 10 0 C10 3.3 10 6.6 10 10 C16.6 10 23.2 10 30 10 C30 13.3 30 16.6 30 20 C33.3 20 36.6 20 40 20 C40 23.3 40 26.6 40 30 C46.6 30 53.2 30 60 30 C60 33.3 60 36.6 60 40 C66.6 40 73.2 40 80 40 C80 43.3 80 46.6 80 50 C89.9 50 99.8 50 110 50 C110 53.3 110 56.6 110 60 C116.6 60 123.2 60 130 60 C130 63.3 130 66.6 130 70 C133.3 70 136.6 70 140 70 C140 76.6 140 83.2 140 90 C136.7 90 133.4 90 130 90 C130 93.3 130 96.6 130 100 C126.7 100 123.4 100 120 100 C120 103.3 120 106.6 120 110 C116.7 110 113.4 110 110 110 C110 123.2 110 136.4 110 150 C106.7 150 103.4 150 100 150 C100 146.7 100 143.4 100 140 C96.7 140 93.4 140 90 140 C90 136.7 90 133.4 90 130 C83.4 130 76.8 130 70 130 C70 126.7 70 123.4 70 120 C73.3 120 76.6 120 80 120 C80 113.4 80 106.8 80 100 C83.3 100 86.6 100 90 100 C90 90.1 90 80.2 90 70 C86.7 70 83.4 70 80 70 C80 66.7 80 63.4 80 60 C76.7 60 73.4 60 70 60 C70 56.7 70 53.4 70 50 C63.4 50 56.8 50 50 50 C50 46.7 50 43.4 50 40 C43.4 40 36.8 40 30 40 C30 36.7 30 33.4 30 30 C16.8 30 3.6 30 -10 30 C-10 26.7 -10 23.4 -10 20 C-6.7 20 -3.4 20 0 20 C0 13.4 0 6.8 0 0 Z " fill="#847E87" transform="translate(340,100)"/>
<path d="M0 0 C6.6 0 13.2 0 20 0 C20 16.5 20 33 20 50 C16.7 50 13.4 50 10 50 C10 53.3 10 56.6 10 60 C6.7 60 3.4 60 0 60 C0 63.3 0 66.6 0 70 C-6.6 70 -13.2 70 -20 70 C-20 73.3 -20 76.6 -20 80 C-26.6 80 -33.2 80 -40 80 C-40 83.3 -40 86.6 -40 90 C-43.3 90 -46.6 90 -50 90 C-50 86.7 -50 83.4 -50 80 C-53.3 80 -56.6 80 -60 80 C-60 66.8 -60 53.6 -60 40 C-56.7 40 -53.4 40 -50 40 C-50 36.7 -50 33.4 -50 30 C-43.4 30 -36.8 30 -30 30 C-30 26.7 -30 23.4 -30 20 C-23.4 20 -16.8 20 -10 20 C-10 16.7 -10 13.4 -10 10 C-6.7 10 -3.4 10 0 10 C0 6.7 0 3.4 0 0 Z " fill="#000000" transform="translate(350,440)"/>
<path d="M0 0 C19.8 0 39.6 0 60 0 C60 6.6 60 13.2 60 20 C50.1 20 40.2 20 30 20 C30 23.3 30 26.6 30 30 C26.7 30 23.4 30 20 30 C20 33.3 20 36.6 20 40 C23.3 40 26.6 40 30 40 C30 43.3 30 46.6 30 50 C36.6 50 43.2 50 50 50 C50 46.7 50 43.4 50 40 C53.3 40 56.6 40 60 40 C60 43.3 60 46.6 60 50 C63.3 50 66.6 50 70 50 C70 46.7 70 43.4 70 40 C76.6 40 83.2 40 90 40 C90 43.3 90 46.6 90 50 C86.7 50 83.4 50 80 50 C80 53.3 80 56.6 80 60 C53.6 60 27.2 60 0 60 C0 56.7 0 53.4 0 50 C-6.6 50 -13.2 50 -20 50 C-20 36.8 -20 23.6 -20 10 C-13.4 10 -6.8 10 0 10 C0 6.7 0 3.4 0 0 Z " fill="#323C39" transform="translate(220,150)"/>
<path d="M0 0 C3.3 0 6.6 0 10 0 C10 29.7 10 59.4 10 90 C-13.1 90 -36.2 90 -60 90 C-60 86.7 -60 83.4 -60 80 C-56.7 80 -53.4 80 -50 80 C-50 73.4 -50 66.8 -50 60 C-46.7 60 -43.4 60 -40 60 C-40 56.7 -40 53.4 -40 50 C-36.7 50 -33.4 50 -30 50 C-30 46.7 -30 43.4 -30 40 C-26.7 40 -23.4 40 -20 40 C-20 33.4 -20 26.8 -20 20 C-16.7 20 -13.4 20 -10 20 C-10 16.7 -10 13.4 -10 10 C-6.7 10 -3.4 10 0 10 C0 6.7 0 3.4 0 0 Z " fill="#8A6F30" transform="translate(630,550)"/>
<path d="M0 0 C3.3 0 6.6 0 10 0 C10 3.3 10 6.6 10 10 C16.6 10 23.2 10 30 10 C30 13.3 30 16.6 30 20 C36.6 20 43.2 20 50 20 C50 23.3 50 26.6 50 30 C56.6 30 63.2 30 70 30 C70 33.3 70 36.6 70 40 C76.6 40 83.2 40 90 40 C90 43.3 90 46.6 90 50 C96.6 50 103.2 50 110 50 C110 53.3 110 56.6 110 60 C119.9 60 129.8 60 140 60 C140 63.3 140 66.6 140 70 C149.9 70 159.8 70 170 70 C170 73.3 170 76.6 170 80 C166.7 80 163.4 80 160 80 C160 83.3 160 86.6 160 90 C150.1 90 140.2 90 130 90 C130 86.7 130 83.4 130 80 C123.4 80 116.8 80 110 80 C110 76.7 110 73.4 110 70 C100.1 70 90.2 70 80 70 C80 66.7 80 63.4 80 60 C73.4 60 66.8 60 60 60 C60 56.7 60 53.4 60 50 C53.4 50 46.8 50 40 50 C40 46.7 40 43.4 40 40 C36.7 40 33.4 40 30 40 C30 36.7 30 33.4 30 30 C23.4 30 16.8 30 10 30 C10 26.7 10 23.4 10 20 C6.7 20 3.4 20 0 20 C0 13.4 0 6.8 0 0 Z " fill="#5B6EE1" transform="translate(340,80)"/>
<path d="M0 0 C16.5 0 33 0 50 0 C50 3.3 50 6.6 50 10 C66.5 10 83 10 100 10 C100 13.3 100 16.6 100 20 C80.2 20 60.4 20 40 20 C40 23.3 40 26.6 40 30 C36.7 30 33.4 30 30 30 C30 33.3 30 36.6 30 40 C23.4 40 16.8 40 10 40 C10 36.7 10 33.4 10 30 C3.4 30 -3.2 30 -10 30 C-10 33.3 -10 36.6 -10 40 C-13.3 40 -16.6 40 -20 40 C-20 36.7 -20 33.4 -20 30 C-23.3 30 -26.6 30 -30 30 C-30 33.3 -30 36.6 -30 40 C-36.6 40 -43.2 40 -50 40 C-50 36.7 -50 33.4 -50 30 C-53.3 30 -56.6 30 -60 30 C-60 26.7 -60 23.4 -60 20 C-56.7 20 -53.4 20 -50 20 C-50 16.7 -50 13.4 -50 10 C-33.5 10 -17 10 0 10 C0 6.7 0 3.4 0 0 Z " fill="#847E87" transform="translate(300,160)"/>
<path d="M0 0 C6.6 0 13.2 0 20 0 C20 3.3 20 6.6 20 10 C23.3 10 26.6 10 30 10 C30 13.3 30 16.6 30 20 C33.3 20 36.6 20 40 20 C40 23.3 40 26.6 40 30 C36.7 30 33.4 30 30 30 C30 33.3 30 36.6 30 40 C23.4 40 16.8 40 10 40 C10 43.3 10 46.6 10 50 C6.7 50 3.4 50 0 50 C0 56.6 0 63.2 0 70 C-3.3 70 -6.6 70 -10 70 C-10 66.7 -10 63.4 -10 60 C-19.9 60 -29.8 60 -40 60 C-40 56.7 -40 53.4 -40 50 C-43.3 50 -46.6 50 -50 50 C-50 46.7 -50 43.4 -50 40 C-46.7 40 -43.4 40 -40 40 C-40 36.7 -40 33.4 -40 30 C-33.4 30 -26.8 30 -20 30 C-20 26.7 -20 23.4 -20 20 C-16.7 20 -13.4 20 -10 20 C-10 16.7 -10 13.4 -10 10 C-6.7 10 -3.4 10 0 10 C0 6.7 0 3.4 0 0 Z " fill="#595652" transform="translate(380,490)"/>
<path d="M0 0 C9.9 0 19.8 0 30 0 C30 3.3 30 6.6 30 10 C23.4 10 16.8 10 10 10 C10 13.3 10 16.6 10 20 C3.4 20 -3.2 20 -10 20 C-10 23.3 -10 26.6 -10 30 C-13.3 30 -16.6 30 -20 30 C-20 46.5 -20 63 -20 80 C-16.7 80 -13.4 80 -10 80 C-10 89.9 -10 99.8 -10 110 C-13.3 110 -16.6 110 -20 110 C-20 113.3 -20 116.6 -20 120 C-26.6 120 -33.2 120 -40 120 C-40 90.3 -40 60.6 -40 30 C-36.7 30 -33.4 30 -30 30 C-30 26.7 -30 23.4 -30 20 C-26.7 20 -23.4 20 -20 20 C-20 16.7 -20 13.4 -20 10 C-13.4 10 -6.8 10 0 10 C0 6.7 0 3.4 0 0 Z " fill="#37946E" transform="translate(40,330)"/>
<path d="M0 0 C3.3 0 6.6 0 10 0 C10 3.3 10 6.6 10 10 C13.3 10 16.6 10 20 10 C20 13.3 20 16.6 20 20 C16.7 20 13.4 20 10 20 C10 26.6 10 33.2 10 40 C6.7 40 3.4 40 0 40 C0 46.6 0 53.2 0 60 C-3.3 60 -6.6 60 -10 60 C-10 56.7 -10 53.4 -10 50 C-16.6 50 -23.2 50 -30 50 C-30 46.7 -30 43.4 -30 40 C-33.3 40 -36.6 40 -40 40 C-40 36.7 -40 33.4 -40 30 C-49.9 30 -59.8 30 -70 30 C-70 26.7 -70 23.4 -70 20 C-66.7 20 -63.4 20 -60 20 C-60 16.7 -60 13.4 -60 10 C-40.2 10 -20.4 10 0 10 C0 6.7 0 3.4 0 0 Z " fill="#524B24" transform="translate(400,170)"/>
<path d="M0 0 C16.5 0 33 0 50 0 C50 3.3 50 6.6 50 10 C53.3 10 56.6 10 60 10 C60 13.3 60 16.6 60 20 C63.3 20 66.6 20 70 20 C70 33.2 70 46.4 70 60 C66.7 60 63.4 60 60 60 C60 50.1 60 40.2 60 30 C56.7 30 53.4 30 50 30 C50 26.7 50 23.4 50 20 C46.7 20 43.4 20 40 20 C40 16.7 40 13.4 40 10 C30.1 10 20.2 10 10 10 C10 13.3 10 16.6 10 20 C6.7 20 3.4 20 0 20 C0 23.3 0 26.6 0 30 C-3.3 30 -6.6 30 -10 30 C-10 39.9 -10 49.8 -10 60 C-6.7 60 -3.4 60 0 60 C0 63.3 0 66.6 0 70 C3.3 70 6.6 70 10 70 C10 76.6 10 83.2 10 90 C6.7 90 3.4 90 0 90 C0 86.7 0 83.4 0 80 C-3.3 80 -6.6 80 -10 80 C-10 76.7 -10 73.4 -10 70 C-13.3 70 -16.6 70 -20 70 C-20 53.5 -20 37 -20 20 C-16.7 20 -13.4 20 -10 20 C-10 16.7 -10 13.4 -10 10 C-6.7 10 -3.4 10 0 10 C0 6.7 0 3.4 0 0 Z " fill="#6ABE30" transform="translate(130,280)"/>
<path d="M0 0 C23.1 0 46.2 0 70 0 C70 3.3 70 6.6 70 10 C73.3 10 76.6 10 80 10 C80 13.3 80 16.6 80 20 C83.3 20 86.6 20 90 20 C90 36.5 90 53 90 70 C86.7 70 83.4 70 80 70 C80 56.8 80 43.6 80 30 C76.7 30 73.4 30 70 30 C70 26.7 70 23.4 70 20 C66.7 20 63.4 20 60 20 C60 16.7 60 13.4 60 10 C43.5 10 27 10 10 10 C10 13.3 10 16.6 10 20 C6.7 20 3.4 20 0 20 C0 23.3 0 26.6 0 30 C-3.3 30 -6.6 30 -10 30 C-10 43.2 -10 56.4 -10 70 C-13.3 70 -16.6 70 -20 70 C-20 53.5 -20 37 -20 20 C-16.7 20 -13.4 20 -10 20 C-10 16.7 -10 13.4 -10 10 C-6.7 10 -3.4 10 0 10 C0 6.7 0 3.4 0 0 Z " fill="#37946E" transform="translate(120,270)"/>
<path d="M0 0 C6.6 0 13.2 0 20 0 C20 9.9 20 19.8 20 30 C16.7 30 13.4 30 10 30 C10 36.6 10 43.2 10 50 C13.3 50 16.6 50 20 50 C20 56.6 20 63.2 20 70 C16.7 70 13.4 70 10 70 C10 73.3 10 76.6 10 80 C3.4 80 -3.2 80 -10 80 C-10 76.7 -10 73.4 -10 70 C-13.3 70 -16.6 70 -20 70 C-20 60.1 -20 50.2 -20 40 C-16.7 40 -13.4 40 -10 40 C-10 30.1 -10 20.2 -10 10 C-6.7 10 -3.4 10 0 10 C0 6.7 0 3.4 0 0 Z " fill="#847E87" transform="translate(100,30)"/>
<path d="M0 0 C6.6 0 13.2 0 20 0 C20 3.3 20 6.6 20 10 C16.7 10 13.4 10 10 10 C10 19.9 10 29.8 10 40 C6.7 40 3.4 40 0 40 C0 46.6 0 53.2 0 60 C-6.6 60 -13.2 60 -20 60 C-20 56.7 -20 53.4 -20 50 C-23.3 50 -26.6 50 -30 50 C-30 40.1 -30 30.2 -30 20 C-33.3 20 -36.6 20 -40 20 C-40 16.7 -40 13.4 -40 10 C-26.8 10 -13.6 10 0 10 C0 6.7 0 3.4 0 0 Z " fill="#FFFFFF" transform="translate(70,160)"/>
<path d="M0 0 C3.3 0 6.6 0 10 0 C10 3.3 10 6.6 10 10 C13.3 10 16.6 10 20 10 C20 16.6 20 23.2 20 30 C29.9 30 39.8 30 50 30 C50 33.3 50 36.6 50 40 C23.6 40 -2.8 40 -30 40 C-30 36.7 -30 33.4 -30 30 C-26.7 30 -23.4 30 -20 30 C-20 26.7 -20 23.4 -20 20 C-16.7 20 -13.4 20 -10 20 C-10 16.7 -10 13.4 -10 10 C-6.7 10 -3.4 10 0 10 C0 6.7 0 3.4 0 0 Z " fill="#3F3F74" transform="translate(400,600)"/>
<path d="M0 0 C6.6 0 13.2 0 20 0 C20 3.3 20 6.6 20 10 C16.7 10 13.4 10 10 10 C10 13.3 10 16.6 10 20 C3.4 20 -3.2 20 -10 20 C-10 23.3 -10 26.6 -10 30 C-13.3 30 -16.6 30 -20 30 C-20 39.9 -20 49.8 -20 60 C-16.7 60 -13.4 60 -10 60 C-10 69.9 -10 79.8 -10 90 C-13.3 90 -16.6 90 -20 90 C-20 83.4 -20 76.8 -20 70 C-23.3 70 -26.6 70 -30 70 C-30 53.5 -30 37 -30 20 C-26.7 20 -23.4 20 -20 20 C-20 16.7 -20 13.4 -20 10 C-13.4 10 -6.8 10 0 10 C0 6.7 0 3.4 0 0 Z " fill="#6ABE30" transform="translate(50,340)"/>
<path d="M0 0 C6.6 0 13.2 0 20 0 C20 3.3 20 6.6 20 10 C23.3 10 26.6 10 30 10 C30 16.6 30 23.2 30 30 C26.7 30 23.4 30 20 30 C20 33.3 20 36.6 20 40 C13.4 40 6.8 40 0 40 C0 36.7 0 33.4 0 30 C-3.3 30 -6.6 30 -10 30 C-10 23.4 -10 16.8 -10 10 C-6.7 10 -3.4 10 0 10 C0 6.7 0 3.4 0 0 Z " fill="#9BADB7" transform="translate(150,490)"/>
<path d="M0 0 C6.6 0 13.2 0 20 0 C20 3.3 20 6.6 20 10 C23.3 10 26.6 10 30 10 C30 16.6 30 23.2 30 30 C26.7 30 23.4 30 20 30 C20 33.3 20 36.6 20 40 C13.4 40 6.8 40 0 40 C0 36.7 0 33.4 0 30 C-3.3 30 -6.6 30 -10 30 C-10 23.4 -10 16.8 -10 10 C-6.7 10 -3.4 10 0 10 C0 6.7 0 3.4 0 0 Z " fill="#9BADB7" transform="translate(280,370)"/>
<path d="M0 0 C13.2 0 26.4 0 40 0 C40 3.3 40 6.6 40 10 C46.6 10 53.2 10 60 10 C60 13.3 60 16.6 60 20 C56.7 20 53.4 20 50 20 C50 23.3 50 26.6 50 30 C43.4 30 36.8 30 30 30 C30 26.7 30 23.4 30 20 C20.1 20 10.2 20 0 20 C0 13.4 0 6.8 0 0 Z " fill="#524B24" transform="translate(320,140)"/>
<path d="M0 0 C6.6 0 13.2 0 20 0 C20 3.3 20 6.6 20 10 C23.3 10 26.6 10 30 10 C30 13.3 30 16.6 30 20 C26.7 20 23.4 20 20 20 C20 23.3 20 26.6 20 30 C10.1 30 0.2 30 -10 30 C-10 23.4 -10 16.8 -10 10 C-6.7 10 -3.4 10 0 10 C0 6.7 0 3.4 0 0 Z " fill="#000000" transform="translate(390,500)"/>
<path d="M0 0 C6.6 0 13.2 0 20 0 C20 9.9 20 19.8 20 30 C10.1 30 0.2 30 -10 30 C-10 23.4 -10 16.8 -10 10 C-6.7 10 -3.4 10 0 10 C0 6.7 0 3.4 0 0 Z " fill="#9BADB7" transform="translate(390,530)"/>
<path d="M0 0 C6.6 0 13.2 0 20 0 C20 3.3 20 6.6 20 10 C16.7 10 13.4 10 10 10 C10 13.3 10 16.6 10 20 C6.7 20 3.4 20 0 20 C0 26.6 0 33.2 0 40 C-3.3 40 -6.6 40 -10 40 C-10 30.1 -10 20.2 -10 10 C-6.7 10 -3.4 10 0 10 C0 6.7 0 3.4 0 0 Z " fill="#595652" transform="translate(380,490)"/>
<path d="M0 0 C3.3 0 6.6 0 10 0 C10 6.6 10 13.2 10 20 C13.3 20 16.6 20 20 20 C20 26.6 20 33.2 20 40 C13.4 40 6.8 40 0 40 C0 26.8 0 13.6 0 0 Z " fill="#3F3F74" transform="translate(0,410)"/>
<path d="M0 0 C3.3 0 6.6 0 10 0 C10 9.9 10 19.8 10 30 C3.4 30 -3.2 30 -10 30 C-10 23.4 -10 16.8 -10 10 C-6.7 10 -3.4 10 0 10 C0 6.7 0 3.4 0 0 Z " fill="#6ABE30" transform="translate(430,580)"/>
<path d="M0 0 C3.3 0 6.6 0 10 0 C10 9.9 10 19.8 10 30 C13.3 30 16.6 30 20 30 C20 33.3 20 36.6 20 40 C13.4 40 6.8 40 0 40 C0 26.8 0 13.6 0 0 Z " fill="#76428A" transform="translate(200,160)"/>
<path d="M0 0 C6.6 0 13.2 0 20 0 C20 3.3 20 6.6 20 10 C16.7 10 13.4 10 10 10 C10 16.6 10 23.2 10 30 C6.7 30 3.4 30 0 30 C0 20.1 0 10.2 0 0 Z " fill="#595652" transform="translate(360,180)"/>
<path d="M0 0 C6.6 0 13.2 0 20 0 C20 6.6 20 13.2 20 20 C16.7 20 13.4 20 10 20 C10 16.7 10 13.4 10 10 C6.7 10 3.4 10 0 10 C0 6.7 0 3.4 0 0 Z " fill="#595652" transform="translate(330,530)"/>
<path d="M0 0 C3.3 0 6.6 0 10 0 C10 6.6 10 13.2 10 20 C6.7 20 3.4 20 0 20 C0 13.4 0 6.8 0 0 Z " fill="#595652" transform="translate(370,510)"/>
<path d="M0 0 C3.3 0 6.6 0 10 0 C10 6.6 10 13.2 10 20 C6.7 20 3.4 20 0 20 C0 13.4 0 6.8 0 0 Z " fill="#000000" transform="translate(360,510)"/>
<path d="M0 0 C6.6 0 13.2 0 20 0 C20 3.3 20 6.6 20 10 C13.4 10 6.8 10 0 10 C0 6.7 0 3.4 0 0 Z " fill="#76428A" transform="translate(220,200)"/>
<path d="M0 0 C3.3 0 6.6 0 10 0 C10 3.3 10 6.6 10 10 C6.7 10 3.4 10 0 10 C0 6.7 0 3.4 0 0 Z " fill="#6ABE30" transform="translate(440,610)"/>
<path d="M0 0 C3.3 0 6.6 0 10 0 C10 3.3 10 6.6 10 10 C6.7 10 3.4 10 0 10 C0 6.7 0 3.4 0 0 Z " fill="#847E87" transform="translate(400,550)"/>
<path d="M0 0 C3.3 0 6.6 0 10 0 C10 3.3 10 6.6 10 10 C6.7 10 3.4 10 0 10 C0 6.7 0 3.4 0 0 Z " fill="#000000" transform="translate(370,550)"/>
<path d="M0 0 C3.3 0 6.6 0 10 0 C10 3.3 10 6.6 10 10 C6.7 10 3.4 10 0 10 C0 6.7 0 3.4 0 0 Z " fill="#595652" transform="translate(370,540)"/>
<path d="M0 0 C3.3 0 6.6 0 10 0 C10 3.3 10 6.6 10 10 C6.7 10 3.4 10 0 10 C0 6.7 0 3.4 0 0 Z " fill="#000000" transform="translate(360,540)"/>
<path d="M0 0 C3.3 0 6.6 0 10 0 C10 3.3 10 6.6 10 10 C6.7 10 3.4 10 0 10 C0 6.7 0 3.4 0 0 Z " fill="#595652" transform="translate(350,540)"/>
<path d="M0 0 C3.3 0 6.6 0 10 0 C10 3.3 10 6.6 10 10 C6.7 10 3.4 10 0 10 C0 6.7 0 3.4 0 0 Z " fill="#000000" transform="translate(340,540)"/>
<path d="M0 0 C3.3 0 6.6 0 10 0 C10 3.3 10 6.6 10 10 C6.7 10 3.4 10 0 10 C0 6.7 0 3.4 0 0 Z " fill="#595652" transform="translate(380,530)"/>
<path d="M0 0 C3.3 0 6.6 0 10 0 C10 3.3 10 6.6 10 10 C6.7 10 3.4 10 0 10 C0 6.7 0 3.4 0 0 Z " fill="#000000" transform="translate(370,530)"/>
<path d="M0 0 C3.3 0 6.6 0 10 0 C10 3.3 10 6.6 10 10 C6.7 10 3.4 10 0 10 C0 6.7 0 3.4 0 0 Z " fill="#595652" transform="translate(360,530)"/>
<path d="M0 0 C3.3 0 6.6 0 10 0 C10 3.3 10 6.6 10 10 C6.7 10 3.4 10 0 10 C0 6.7 0 3.4 0 0 Z " fill="#000000" transform="translate(350,530)"/>
<path d="M0 0 C3.3 0 6.6 0 10 0 C10 3.3 10 6.6 10 10 C6.7 10 3.4 10 0 10 C0 6.7 0 3.4 0 0 Z " fill="#000000" transform="translate(330,530)"/>
<path d="M0 0 C3.3 0 6.6 0 10 0 C10 3.3 10 6.6 10 10 C6.7 10 3.4 10 0 10 C0 6.7 0 3.4 0 0 Z " fill="#595652" transform="translate(320,530)"/>
<path d="M0 0 C3.3 0 6.6 0 10 0 C10 3.3 10 6.6 10 10 C6.7 10 3.4 10 0 10 C0 6.7 0 3.4 0 0 Z " fill="#000000" transform="translate(400,520)"/>
<path d="M0 0 C3.3 0 6.6 0 10 0 C10 3.3 10 6.6 10 10 C6.7 10 3.4 10 0 10 C0 6.7 0 3.4 0 0 Z " fill="#595652" transform="translate(390,520)"/>
<path d="M0 0 C3.3 0 6.6 0 10 0 C10 3.3 10 6.6 10 10 C6.7 10 3.4 10 0 10 C0 6.7 0 3.4 0 0 Z " fill="#000000" transform="translate(340,520)"/>
<path d="M0 0 C3.3 0 6.6 0 10 0 C10 3.3 10 6.6 10 10 C6.7 10 3.4 10 0 10 C0 6.7 0 3.4 0 0 Z " fill="#000000" transform="translate(410,510)"/>
<path d="M0 0 C3.3 0 6.6 0 10 0 C10 3.3 10 6.6 10 10 C6.7 10 3.4 10 0 10 C0 6.7 0 3.4 0 0 Z " fill="#595652" transform="translate(400,510)"/>
<path d="M0 0 C3.3 0 6.6 0 10 0 C10 3.3 10 6.6 10 10 C6.7 10 3.4 10 0 10 C0 6.7 0 3.4 0 0 Z " fill="#000000" transform="translate(370,500)"/>
<path d="M0 0 C3.3 0 6.6 0 10 0 C10 3.3 10 6.6 10 10 C6.7 10 3.4 10 0 10 C0 6.7 0 3.4 0 0 Z " fill="#000000" transform="translate(380,490)"/>
<path d="M0 0 C3.3 0 6.6 0 10 0 C10 3.3 10 6.6 10 10 C6.7 10 3.4 10 0 10 C0 6.7 0 3.4 0 0 Z " fill="#37946E" transform="translate(130,370)"/>
<path d="M0 0 C3.3 0 6.6 0 10 0 C10 3.3 10 6.6 10 10 C6.7 10 3.4 10 0 10 C0 6.7 0 3.4 0 0 Z " fill="#37946E" transform="translate(120,360)"/>
<path d="M0 0 C3.3 0 6.6 0 10 0 C10 3.3 10 6.6 10 10 C6.7 10 3.4 10 0 10 C0 6.7 0 3.4 0 0 Z " fill="#37946E" transform="translate(110,350)"/>
<path d="M0 0 C3.3 0 6.6 0 10 0 C10 3.3 10 6.6 10 10 C6.7 10 3.4 10 0 10 C0 6.7 0 3.4 0 0 Z " fill="#524B24" transform="translate(390,160)"/>
</svg>
